<svg width="21" height="16" viewBox="0 0 21 16" fill="none" xmlns="http://www.w3.org/2000/svg">
<path d="M18.301 4.01071C18.314 4.18571 18.314 4.35971 18.314 4.53371C18.314 9.85872 14.261 15.9947 6.85397 15.9947C4.57197 15.9947 2.45197 15.3337 0.667969 14.1857C0.991969 14.2227 1.30397 14.2357 1.64097 14.2357C3.52397 14.2357 5.25697 13.5997 6.64197 12.5147C4.87097 12.4777 3.38697 11.3177 2.87497 9.72171C3.12397 9.75871 3.37397 9.78372 3.63597 9.78372C3.99697 9.78372 4.35997 9.73372 4.69697 9.64672C2.84997 9.27272 1.46697 7.65171 1.46697 5.69371V5.64371C2.00397 5.94271 2.62697 6.12971 3.28697 6.15472C2.20197 5.43271 1.49097 4.19771 1.49097 2.80071C1.49097 2.05271 1.68997 1.36671 2.03897 0.768715C4.02197 3.21171 7.00297 4.80871 10.345 4.98372C10.283 4.68371 10.245 4.37271 10.245 4.06071C10.245 1.84071 12.041 0.0327148 14.273 0.0327148C15.433 0.0327148 16.48 0.518715 17.216 1.30471C18.126 1.12971 18.998 0.792715 19.772 0.331715C19.473 1.26671 18.836 2.05271 18.001 2.55171C18.812 2.46371 19.598 2.23971 20.32 1.92771C19.772 2.72571 19.087 3.43671 18.301 4.01071Z" fill="#222222"/>
</svg>
