<svg width="172" height="40" viewBox="0 0 172 40" fill="none" xmlns="http://www.w3.org/2000/svg">
<g clip-path="url(#clip0_1220_43)">
<path d="M20 0C8.9543 0 0 8.9543 0 20C11.0457 20 20 11.0457 20 0Z" fill="#023F3A"/>
<path d="M20 40C31.0457 40 40 31.0457 40 20C28.9543 20 20 28.9543 20 40Z" fill="#023F3A"/>
<path d="M20 0C31.0457 0 40 8.9543 40 20C28.9543 20 20 11.0457 20 0Z" fill="#C13512"/>
<path d="M20 40C8.9543 40 -9.65645e-07 31.0457 0 20C11.0457 20 20 28.9543 20 40Z" fill="#C13512"/>
</g>
<defs>
<clipPath id="clip0_1220_43">
<rect width="172" height="40" fill="white"/>
</clipPath>
</defs>
</svg>
