<svg width="48" height="49" viewBox="0 0 48 49" fill="none" xmlns="http://www.w3.org/2000/svg">
<circle cx="24" cy="24.0137" r="24" fill="#023F3A"/>
<path d="M32.21 20.8337L26 14.7937C25.474 14.2936 24.7759 14.0146 24.05 14.0146C23.3241 14.0146 22.626 14.2936 22.1 14.7937L15.89 20.7937C15.6141 21.0346 15.3922 21.331 15.2388 21.6636C15.0854 21.9962 15.004 22.3575 15 22.7237V31.3037C15.0105 32.0313 15.309 32.7251 15.8301 33.233C16.3512 33.741 17.0524 34.0217 17.78 34.0137H30.22C30.9476 34.0217 31.6488 33.741 32.1699 33.233C32.691 32.7251 32.9895 32.0313 33 31.3037V22.7237C32.9992 22.3722 32.929 22.0243 32.7935 21.6999C32.6579 21.3756 32.4596 21.0812 32.21 20.8337ZM23.44 16.2337C23.593 16.0939 23.7927 16.0163 24 16.0163C24.2073 16.0163 24.407 16.0939 24.56 16.2337L30 21.5137L24.53 26.7937C24.377 26.9335 24.1773 27.0111 23.97 27.0111C23.7627 27.0111 23.563 26.9335 23.41 26.7937L18 21.5137L23.44 16.2337ZM31 31.3037C30.9871 31.5 30.8987 31.6836 30.7532 31.816C30.6078 31.9484 30.4166 32.0193 30.22 32.0137H17.78C17.5834 32.0193 17.3922 31.9484 17.2468 31.816C17.1013 31.6836 17.0129 31.5 17 31.3037V23.3637L21.05 27.2637L19.39 28.8637C19.2037 29.0511 19.0992 29.3045 19.0992 29.5687C19.0992 29.8329 19.2037 30.0863 19.39 30.2737C19.4829 30.3712 19.5946 30.4489 19.7184 30.5022C19.8421 30.5555 19.9753 30.5832 20.11 30.5837C20.3675 30.5827 20.6146 30.4824 20.8 30.3037L22.57 28.6037C23.0096 28.8723 23.5148 29.0145 24.03 29.0145C24.5452 29.0145 25.0504 28.8723 25.49 28.6037L27.26 30.3037C27.4454 30.4824 27.6925 30.5827 27.95 30.5837C28.0847 30.5832 28.2179 30.5555 28.3416 30.5022C28.4654 30.4489 28.5771 30.3712 28.67 30.2737C28.8563 30.0863 28.9608 29.8329 28.9608 29.5687C28.9608 29.3045 28.8563 29.0511 28.67 28.8637L27 27.2637L31 23.3637V31.3037Z" fill="#F0FDF4"/>
</svg>
