<svg width="48" height="49" viewBox="0 0 48 49" fill="none" xmlns="http://www.w3.org/2000/svg">
<circle cx="24" cy="24.0137" r="24" fill="#023F3A"/>
<path d="M33 14.0137H15C14.7348 14.0137 14.4804 14.119 14.2929 14.3066C14.1054 14.4941 14 14.7485 14 15.0137V33.0137C14 33.2789 14.1054 33.5332 14.2929 33.7208C14.4804 33.9083 14.7348 34.0137 15 34.0137H33C33.2652 34.0137 33.5196 33.9083 33.7071 33.7208C33.8946 33.5332 34 33.2789 34 33.0137V15.0137C34 14.7485 33.8946 14.4941 33.7071 14.3066C33.5196 14.119 33.2652 14.0137 33 14.0137ZM20 32.0137H16V28.0137H20V32.0137ZM20 26.0137H16V22.0137H20V26.0137ZM20 20.0137H16V16.0137H20V20.0137ZM26 32.0137H22V28.0137H26V32.0137ZM26 26.0137H22V22.0137H26V26.0137ZM26 20.0137H22V16.0137H26V20.0137ZM32 32.0137H28V28.0137H32V32.0137ZM32 26.0137H28V22.0137H32V26.0137ZM32 20.0137H28V16.0137H32V20.0137Z" fill="#F0FDF4"/>
</svg>
