<svg width="48" height="49" viewBox="0 0 48 49" fill="none" xmlns="http://www.w3.org/2000/svg">
<circle cx="24" cy="24.0137" r="24" fill="#023F3A"/>
<path d="M30 16.4937C28.4087 14.9024 26.2504 14.0084 24 14.0084C21.7496 14.0084 19.5913 14.9024 18 16.4937C16.4087 18.085 15.5147 20.2433 15.5147 22.4937C15.5147 24.7441 16.4087 26.9024 18 28.4937L23.27 33.7737C23.363 33.8674 23.4736 33.9418 23.5954 33.9926C23.7173 34.0434 23.848 34.0695 23.98 34.0695C24.112 34.0695 24.2427 34.0434 24.3646 33.9926C24.4864 33.9418 24.597 33.8674 24.69 33.7737L30 28.4437C31.5846 26.859 32.4749 24.7098 32.4749 22.4687C32.4749 20.2277 31.5846 18.0784 30 16.4937ZM28.57 27.0137L24 31.6037L19.43 27.0137C18.5271 26.11 17.9125 24.959 17.6637 23.706C17.4149 22.453 17.5432 21.1545 18.0323 19.9744C18.5214 18.7943 19.3494 17.7858 20.4116 17.0762C21.4738 16.3666 22.7226 15.9879 24 15.9879C25.2774 15.9879 26.5262 16.3666 27.5884 17.0762C28.6506 17.7858 29.4786 18.7943 29.9677 19.9744C30.4568 21.1545 30.5851 22.453 30.3363 23.706C30.0875 24.959 29.4729 26.11 28.57 27.0137ZM21 19.4237C20.1927 20.2335 19.7394 21.3303 19.7394 22.4737C19.7394 23.6171 20.1927 24.7139 21 25.5237C21.5998 26.1245 22.3636 26.5348 23.1956 26.7031C24.0277 26.8714 24.891 26.7903 25.6771 26.4699C26.4632 26.1494 27.1372 25.604 27.6145 24.902C28.0918 24.1999 28.3511 23.3726 28.36 22.5237C28.3645 21.9569 28.2553 21.395 28.0389 20.8711C27.8225 20.3472 27.5032 19.8721 27.1 19.4737C26.7037 19.0683 26.2311 18.7452 25.7094 18.5232C25.1878 18.3011 24.6273 18.1844 24.0604 18.1797C23.4935 18.1751 22.9312 18.2826 22.406 18.4961C21.8807 18.7096 21.4029 19.0248 21 19.4237ZM25.69 24.1037C25.311 24.4884 24.8102 24.7296 24.2731 24.786C23.736 24.8423 23.1961 24.7103 22.7455 24.4126C22.2949 24.1149 21.9618 23.6699 21.803 23.1538C21.6442 22.6376 21.6696 22.0823 21.875 21.5829C22.0803 21.0834 22.4527 20.6707 22.9286 20.4154C23.4045 20.1602 23.9543 20.0781 24.4839 20.1833C25.0136 20.2885 25.4903 20.5745 25.8325 20.9922C26.1747 21.41 26.3612 21.9337 26.36 22.4737C26.3454 23.091 26.0865 23.6772 25.64 24.1037H25.69Z" fill="#F0FDF4"/>
</svg>
