<svg width="48" height="49" viewBox="0 0 48 49" fill="none" xmlns="http://www.w3.org/2000/svg">
<circle cx="24" cy="24.0137" r="24" fill="#023F3A"/>
<path d="M31.41 25.0137C31.19 25.0137 30.96 24.9437 30.74 24.8937C30.2948 24.7941 29.8571 24.6638 29.43 24.5037C28.9661 24.3349 28.4561 24.3437 27.9983 24.5283C27.5405 24.7129 27.1671 25.0603 26.95 25.5037L26.73 25.9637C25.7588 25.4129 24.8616 24.7408 24.06 23.9637C23.2828 23.162 22.6108 22.2648 22.06 21.2937L22.52 21.0837C22.9634 20.8666 23.3108 20.4932 23.4954 20.0354C23.68 19.5775 23.6888 19.0676 23.52 18.6037C23.3612 18.1727 23.2309 17.7317 23.13 17.2837C23.08 17.0637 23.04 16.8337 23.01 16.6137C22.8886 15.9093 22.5196 15.2714 21.9696 14.8149C21.4196 14.3584 20.7247 14.1133 20.01 14.1237H17C16.5772 14.1231 16.1591 14.2119 15.7731 14.3843C15.3871 14.5566 15.0418 14.8086 14.76 15.1237C14.4723 15.4473 14.2581 15.8294 14.1321 16.2437C14.0061 16.658 13.9712 17.0946 14.03 17.5237C14.5736 21.6858 16.4752 25.5523 19.44 28.5237C22.4113 31.4885 26.2779 33.3901 30.44 33.9337C30.5698 33.9436 30.7002 33.9436 30.83 33.9337C31.5674 33.9348 32.2794 33.6642 32.83 33.1737C33.1451 32.8918 33.3971 32.5466 33.5694 32.1606C33.7417 31.7745 33.8305 31.3564 33.83 30.9337V27.9337C33.8246 27.2427 33.5808 26.5748 33.1399 26.0428C32.699 25.5107 32.0879 25.1472 31.41 25.0137ZM31.9 31.0137C31.8997 31.1532 31.8701 31.2911 31.8133 31.4186C31.7565 31.546 31.6736 31.6602 31.57 31.7537C31.4604 31.8535 31.33 31.9278 31.1881 31.971C31.0463 32.0142 30.8967 32.0254 30.75 32.0037C27.0183 31.5163 23.5502 29.8157 20.88 27.1637C18.2075 24.4911 16.492 21.011 16 17.2637C15.9783 17.117 15.9894 16.9673 16.0327 16.8255C16.0759 16.6837 16.1501 16.5533 16.25 16.4437C16.3446 16.3388 16.4604 16.2552 16.5896 16.1983C16.7189 16.1414 16.8588 16.1126 17 16.1137H20C20.2312 16.108 20.4571 16.1827 20.6395 16.3249C20.8218 16.4671 20.9492 16.6681 21 16.8937C21 17.1637 21.09 17.4437 21.15 17.7137C21.2656 18.2375 21.4193 18.7522 21.61 19.2537L20.21 19.9137C19.9694 20.0241 19.7823 20.2255 19.69 20.4737C19.59 20.7171 19.59 20.9902 19.69 21.2337C21.1292 24.3164 23.6072 26.7945 26.69 28.2337C26.9334 28.3337 27.2065 28.3337 27.45 28.2337C27.6981 28.1413 27.8995 27.9543 28.01 27.7137L28.64 26.3137C29.1559 26.5018 29.6837 26.6555 30.22 26.7737C30.48 26.8337 30.76 26.8837 31.03 26.9237C31.2556 26.9745 31.4566 27.1019 31.5988 27.2842C31.741 27.4665 31.8156 27.6925 31.81 27.9237L31.9 31.0137ZM26 14.0137C25.77 14.0137 25.53 14.0137 25.3 14.0137C25.0348 14.0362 24.7894 14.1632 24.6178 14.3667C24.4462 14.5701 24.3624 14.8335 24.385 15.0987C24.4075 15.3639 24.5345 15.6093 24.738 15.7809C24.9415 15.9525 25.2048 16.0362 25.47 16.0137H26C27.5913 16.0137 29.1174 16.6458 30.2426 17.771C31.3678 18.8962 32 20.4224 32 22.0137C32 22.1937 32 22.3637 32 22.5437C31.9778 22.8075 32.0612 23.0693 32.2317 23.2718C32.4023 23.4742 32.6462 23.6008 32.91 23.6237H32.99C33.2403 23.6247 33.4819 23.5318 33.6671 23.3633C33.8522 23.1948 33.9675 22.963 33.99 22.7137C33.99 22.4837 33.99 22.2437 33.99 22.0137C33.99 19.8937 33.1485 17.8604 31.6504 16.3604C30.1523 14.8603 28.12 14.0163 26 14.0137ZM28 22.0137C28 22.2789 28.1053 22.5332 28.2929 22.7208C28.4804 22.9083 28.7348 23.0137 29 23.0137C29.2652 23.0137 29.5196 22.9083 29.7071 22.7208C29.8946 22.5332 30 22.2789 30 22.0137C30 20.9528 29.5786 19.9354 28.8284 19.1852C28.0783 18.4351 27.0609 18.0137 26 18.0137C25.7348 18.0137 25.4804 18.119 25.2929 18.3066C25.1053 18.4941 25 18.7485 25 19.0137C25 19.2789 25.1053 19.5332 25.2929 19.7208C25.4804 19.9083 25.7348 20.0137 26 20.0137C26.5304 20.0137 27.0391 20.2244 27.4142 20.5995C27.7893 20.9745 28 21.4832 28 22.0137Z" fill="#F0FDF4"/>
</svg>
