<svg width="92" height="92" viewBox="0 0 92 92" fill="none" xmlns="http://www.w3.org/2000/svg">
<path d="M72.8333 11.5H19.1667C14.9325 11.5 11.5 14.9325 11.5 19.1667V72.8333C11.5 77.0675 14.9325 80.5 19.1667 80.5H72.8333C77.0675 80.5 80.5 77.0675 80.5 72.8333V19.1667C80.5 14.9325 77.0675 11.5 72.8333 11.5Z" stroke="#212121" stroke-width="3" stroke-linecap="round" stroke-linejoin="round"/>
<path d="M32.5833 38.3333C35.7589 38.3333 38.3333 35.7589 38.3333 32.5833C38.3333 29.4076 35.7589 26.8333 32.5833 26.8333C29.4077 26.8333 26.8333 29.4076 26.8333 32.5833C26.8333 35.7589 29.4077 38.3333 32.5833 38.3333Z" stroke="#212121" stroke-width="3" stroke-linecap="round" stroke-linejoin="round"/>
<path d="M80.5 57.4999L61.3334 38.3333L19.1667 80.4999" stroke="#212121" stroke-width="3" stroke-linecap="round" stroke-linejoin="round"/>
</svg>
