<svg width="25" height="25" viewBox="0 0 25 25" fill="none" xmlns="http://www.w3.org/2000/svg">
<path d="M19.5 4.01367H5.5C4.70435 4.01367 3.94129 4.32974 3.37868 4.89235C2.81607 5.45496 2.5 6.21802 2.5 7.01367V17.0137C2.5 17.8093 2.81607 18.5724 3.37868 19.135C3.94129 19.6976 4.70435 20.0137 5.5 20.0137H19.5C20.2956 20.0137 21.0587 19.6976 21.6213 19.135C22.1839 18.5724 22.5 17.8093 22.5 17.0137V7.01367C22.5 6.21802 22.1839 5.45496 21.6213 4.89235C21.0587 4.32974 20.2956 4.01367 19.5 4.01367V4.01367ZM19.09 6.01367L13.21 11.8937C13.117 11.9874 13.0064 12.0618 12.8846 12.1126C12.7627 12.1633 12.632 12.1895 12.5 12.1895C12.368 12.1895 12.2373 12.1633 12.1154 12.1126C11.9936 12.0618 11.883 11.9874 11.79 11.8937L5.91 6.01367H19.09ZM20.5 17.0137C20.5 17.2789 20.3946 17.5332 20.2071 17.7208C20.0196 17.9083 19.7652 18.0137 19.5 18.0137H5.5C5.23478 18.0137 4.98043 17.9083 4.79289 17.7208C4.60536 17.5332 4.5 17.2789 4.5 17.0137V7.42367L10.38 13.3037C10.9425 13.8655 11.705 14.181 12.5 14.181C13.295 14.181 14.0575 13.8655 14.62 13.3037L20.5 7.42367V17.0137Z" fill="#F0FDF4"/>
</svg>
