<svg width="24" height="25" viewBox="0 0 24 25" fill="none" xmlns="http://www.w3.org/2000/svg">
<path d="M19 4.01367H5C4.20435 4.01367 3.44129 4.32974 2.87868 4.89235C2.31607 5.45496 2 6.21802 2 7.01367V17.0137C2 17.8093 2.31607 18.5724 2.87868 19.135C3.44129 19.6976 4.20435 20.0137 5 20.0137H19C19.7956 20.0137 20.5587 19.6976 21.1213 19.135C21.6839 18.5724 22 17.8093 22 17.0137V7.01367C22 6.21802 21.6839 5.45496 21.1213 4.89235C20.5587 4.32974 19.7956 4.01367 19 4.01367V4.01367ZM18.59 6.01367L12.71 11.8937C12.617 11.9874 12.5064 12.0618 12.3846 12.1126C12.2627 12.1633 12.132 12.1895 12 12.1895C11.868 12.1895 11.7373 12.1633 11.6154 12.1126C11.4936 12.0618 11.383 11.9874 11.29 11.8937L5.41 6.01367H18.59ZM20 17.0137C20 17.2789 19.8946 17.5332 19.7071 17.7208C19.5196 17.9083 19.2652 18.0137 19 18.0137H5C4.73478 18.0137 4.48043 17.9083 4.29289 17.7208C4.10536 17.5332 4 17.2789 4 17.0137V7.42367L9.88 13.3037C10.4425 13.8655 11.205 14.181 12 14.181C12.795 14.181 13.5575 13.8655 14.12 13.3037L20 7.42367V17.0137Z" fill="#556987"/>
</svg>
