<svg width="25" height="25" viewBox="0 0 25 25" fill="none" xmlns="http://www.w3.org/2000/svg">
<path d="M15.33 11.3036L11.09 7.06362C10.997 6.96989 10.8864 6.8955 10.7646 6.84473C10.6427 6.79396 10.512 6.76782 10.38 6.76782C10.248 6.76782 10.1173 6.79396 9.99543 6.84473C9.87357 6.8955 9.76297 6.96989 9.67 7.06362C9.48375 7.25098 9.37921 7.50443 9.37921 7.76862C9.37921 8.03281 9.48375 8.28626 9.67 8.47362L13.21 12.0136L9.67 15.5536C9.48375 15.741 9.37921 15.9944 9.37921 16.2586C9.37921 16.5228 9.48375 16.7763 9.67 16.9636C9.76344 17.0563 9.87426 17.1296 9.9961 17.1794C10.1179 17.2292 10.2484 17.2544 10.38 17.2536C10.5116 17.2544 10.6421 17.2292 10.7639 17.1794C10.8857 17.1296 10.9966 17.0563 11.09 16.9636L15.33 12.7236C15.4237 12.6307 15.4981 12.5201 15.5489 12.3982C15.5997 12.2763 15.6258 12.1456 15.6258 12.0136C15.6258 11.8816 15.5997 11.7509 15.5489 11.629C15.4981 11.5072 15.4237 11.3966 15.33 11.3036Z" fill="#F0FDF4"/>
</svg>
